<svg width="567" height="161" viewBox="0 0 567 161" fill="none" xmlns="http://www.w3.org/2000/svg">
<path d="M306.376 19.3202V90.0752L236.308 19.3202H228.752V139.535H255.199V70.8409L325.095 139.535H332.824V19.3202H306.376Z" fill="#2C2C2C"/>
<path d="M396.972 63.7997L431.663 23.0984L428.915 19.3202H351.29L346.482 41.6458H390.618L360.564 77.3668L363.484 83.2058C370.181 81.6602 376.192 81.145 380.829 81.145C396.8 81.145 407.448 88.7014 407.448 100.551C407.448 112.573 396.972 120.129 382.546 120.129C371.04 120.129 356.786 115.32 346.138 108.107V130.948C355.412 137.646 369.666 141.596 383.92 141.596C412.085 141.596 431.834 126.311 431.834 101.582C431.834 81.4885 416.035 66.891 396.972 63.7997Z" fill="#2C2C2C"/>
<path d="M502.51 141.596C538.231 141.596 566.396 115.32 566.396 79.4277C566.396 43.7067 539.09 17.2594 502.51 17.2594C466.618 17.2594 438.625 43.7067 438.625 79.4277C438.625 115.149 465.931 141.596 502.51 141.596ZM502.51 117.896C481.215 117.896 465.587 101.238 465.587 79.4277C465.587 57.4455 481.043 40.9589 502.51 40.9589C522.947 40.9589 539.433 57.102 539.433 79.4277C539.433 101.582 523.29 117.896 502.51 117.896Z" fill="#2C2C2C"/>
<path d="M102.148 161L56.2634 124.686V0L102.148 36.3144V161Z" fill="#F5B323"/>
<path d="M102.15 161L161.004 112.7V51.967L102.15 102.145V161Z" fill="#EB3569"/>
<path d="M0 46.0639V106.171L56.2606 61.0906V0L0 46.0639Z" fill="#2196F3"/>
</svg>
